<?xml version="1.0" encoding="utf-8"?>
<!-- Generator: Adobe Illustrator 26.0.3, SVG Export Plug-In . SVG Version: 6.00 Build 0)  -->
<svg version="1.1" id="Layer_1" xmlns="http://www.w3.org/2000/svg" xmlns:xlink="http://www.w3.org/1999/xlink" x="0px" y="0px"
	 viewBox="0 0 1718 649" style="enable-background:new 0 0 1718 649;" xml:space="preserve">
<path d="M129.39,649c94.26,0,125.83-36.89,125.83-123.58V364.06H137.84V545c0,10.23-1.78,14.67-8.45,14.67s-8.45-4.44-8.45-14.67
	V104c0-10.23,1.78-14.67,8.45-14.67s8.45,4.44,8.45,14.67v180.94h117.38V123.13C255.22,36.9,223.65,0,129.39,0C32,0,0,36.9,0,123.13
	v402.29C0,612.11,32,649,129.39,649z"/>
<path d="M274.89,637.89h117.82V405h13.79c86.7,0,124-37.79,124-111.13V122.24c0-72.9-37.35-111.13-124-111.13H274.89V637.89z
	 M392.71,309.39v-202.7h8c7.56,0,8.89,4,8.89,14.66v173.37c0,10.67-1.33,14.67-8.89,14.67H392.71z"/>
<path d="M550.62,637.89H668V375.18h16.9v262.71h117.38V11.11H684.9v256.94H668V11.11H550.62V637.89z"/>
<path d="M898,637.89h135.17c87.15,0,120-38.23,120-111.58V122.24c0-72.9-32.9-111.13-120-111.13H898V637.89z M1015.39,542.32V106.69
	h8c7.5601,0,8.89,4,8.89,14.66V527.2c0,11.11-1.33,15.12-8.89,15.12H1015.39z"/>
<path d="M1303.05,649c97.38,0,129.39-36.89,129.39-123.58V123.13c0-86.23-32-123.13-129.39-123.13s-129.39,36.9-129.39,123.13
	v402.29C1173.66,612.11,1205.6801,649,1303.05,649z M1303.05,559.65c-6.67,0-8.4399-4.44-8.4399-14.67V101.8
	c0-8,1.33-12.45,8.4399-12.45s8.45,4.44,8.45,12.45V545C1311.5,555.21,1309.72,559.65,1303.05,559.65z"/>
<path d="M1438.77,637.89h121.83l17.34-244.49l17.79,244.49H1718l-40-314.72l40-312.06h-121.83l-17.78,242.71L1561,11.11h-122.23
	l40,312.06L1438.77,637.89z"/>
<rect x="820" y="11" width="60" height="61"/>
<rect x="820" y="577" width="60" height="61"/>
</svg>
