<svg width="150" height="150" viewBox="0 0 150 150" fill="none" xmlns="http://www.w3.org/2000/svg">
<path d="M55.1248 35.2498C47.3998 38.9998 38.4748 47.5498 31.3498 58.0498C27.6748 63.4498 22.7998 73.0498 22.1998 76.1248C21.8248 77.9998 21.8248 78.1498 22.4998 76.8748C23.1748 75.5248 23.2498 75.5998 22.8748 77.2498C22.7248 78.2998 22.4998 79.7248 22.4998 80.3998C22.4998 81.9748 21.2998 82.1998 20.7748 80.7748C20.6248 80.3248 20.6248 80.7748 20.7748 81.8998C20.9248 82.9498 20.6998 87.2248 20.2498 91.4248C19.2748 100.575 19.8748 103.425 23.9248 108.6C27.9748 113.7 31.1998 115.05 38.6998 115.05C44.4748 115.05 45.0748 114.825 52.5748 111.15C57.4498 108.75 61.9498 105.825 64.4998 103.425C69.2248 99.0748 69.2998 99.0748 60.3748 104.1C51.2998 109.2 40.5748 112.8 36.2248 112.125C25.6498 110.55 19.0498 95.8498 23.2498 83.2498C25.6498 76.0498 29.0248 68.6248 32.0998 63.8248C35.3248 58.6498 41.1748 51.7498 42.2248 51.7498C42.5998 51.7498 45.7498 49.1248 49.0498 45.8998C55.0498 40.1248 61.7998 35.9998 65.1748 35.9998C66.9748 35.9998 70.4998 40.4248 70.4998 42.6748C70.4998 47.6248 66.6748 56.7748 62.3998 62.2498C54.8998 71.6998 47.6998 77.6998 44.6248 76.9498C42.5248 76.4248 41.4748 77.6248 42.7498 79.1248C45.2998 82.1998 52.3498 78.2998 60.6748 69.2248C65.3248 64.1248 67.2748 60.9748 71.4748 51.8998C71.9248 50.9998 72.2998 47.9248 72.2998 45.1498C72.3748 40.5748 72.1498 39.8998 70.1248 37.5748C65.4748 32.4748 62.0248 31.8748 55.1248 35.2498Z" fill="black"/>
<path d="M99.9747 45.9C99.1497 47.325 98.9997 48.825 99.8997 48.3C100.275 48.075 100.425 47.625 100.2 47.4C99.9747 47.175 100.125 46.575 100.575 45.975C101.025 45.45 101.25 45 101.025 45C100.8 45 100.35 45.45 99.9747 45.9Z" fill="black"/>
<path d="M96.6746 47.0244C95.6996 48.2244 95.7746 48.2994 96.9746 47.3244C97.6496 46.7994 98.2496 46.1994 98.2496 46.0494C98.2496 45.4494 97.6496 45.8244 96.6746 47.0244Z" fill="black"/>
<path d="M98.25 77.5494C98.25 77.6994 98.85 78.2994 99.6 78.8244C100.725 79.7994 100.8 79.7244 99.825 78.5244C98.85 77.3244 98.25 76.9494 98.25 77.5494Z" fill="black"/>
<path d="M18.8248 85.9503C18.8248 86.7753 19.0498 87.0003 19.2748 86.4003C19.4998 85.8753 19.4248 85.2003 19.1998 84.9753C18.9748 84.6753 18.7498 85.1253 18.8248 85.9503Z" fill="black"/>
<path d="M105.033 35.2977C97.3084 39.0477 88.3834 47.5977 81.2584 58.0977C77.5834 63.4977 72.7084 73.0977 72.1084 76.1727C71.7334 78.0477 71.7334 78.1977 72.4084 76.9227C73.0834 75.5727 73.1584 75.6477 72.7834 77.2977C72.6334 78.3477 72.4084 79.7727 72.4084 80.4477C72.4084 82.0227 71.2084 82.2477 70.6834 80.8227C70.5334 80.3727 70.5334 80.8227 70.6834 81.9477C70.8334 82.9977 70.6084 87.2727 70.1584 91.4727C69.1834 100.623 69.7834 103.473 73.8334 108.648C77.8834 113.748 81.1084 115.098 88.6084 115.098C94.3834 115.098 94.9834 114.873 102.483 111.198C107.358 108.798 111.858 105.873 114.408 103.473C119.133 99.1227 119.208 99.1227 110.283 104.148C101.208 109.248 90.4834 112.848 86.1334 112.173C75.5584 110.598 68.9584 95.8977 73.1584 83.2977C75.5584 76.0977 78.9334 68.6727 82.0084 63.8727C85.2334 58.6977 91.0834 51.7977 92.1334 51.7977C92.5084 51.7977 95.6584 49.1727 98.9584 45.9477C104.958 40.1727 111.708 36.0477 115.083 36.0477C116.883 36.0477 120.408 40.4727 120.408 42.7227C120.408 47.6727 116.583 56.8227 112.308 62.2977C104.808 71.7477 97.6084 77.7477 94.5334 76.9977C92.4334 76.4727 91.3834 77.6727 92.6584 79.1727C95.2084 82.2477 102.258 78.3477 110.583 69.2727C115.233 64.1727 117.183 61.0227 121.383 51.9477C121.833 51.0477 122.208 47.9727 122.208 45.1977C122.283 40.6227 122.058 39.9477 120.033 37.6227C115.383 32.5227 111.933 31.9227 105.033 35.2977Z" fill="black"/>
</svg>
