<svg width="800" height="240" viewBox="0 0 800 240" fill="none" xmlns="http://www.w3.org/2000/svg">
<rect width="10" height="10" transform="matrix(-1 0 0 1 113 75)" fill="#FF9131"/>
<rect width="10" height="10" transform="matrix(-1 0 0 1 123 75)" fill="#FF9131"/>
<rect width="10" height="10" transform="matrix(-1 0 0 1 133 75)" fill="#FF9131"/>
<rect width="10" height="10" transform="matrix(-1 0 0 1 143 75)" fill="#FF9131"/>
<rect width="10" height="10" transform="matrix(-1 0 0 1 93 85)" fill="#FF9131"/>
<rect width="10" height="10" transform="matrix(-1 0 0 1 103 85)" fill="#FF9131"/>
<rect width="10" height="10" transform="matrix(-1 0 0 1 113 85)" fill="#FF9131"/>
<rect width="10" height="10" transform="matrix(-1 0 0 1 123 85)" fill="#FF9131"/>
<rect width="10" height="10" transform="matrix(-1 0 0 1 133 85)" fill="#FF9131"/>
<rect width="10" height="10" transform="matrix(-1 0 0 1 143 85)" fill="#FF9131"/>
<rect width="10" height="10" transform="matrix(-1 0 0 1 153 85)" fill="#FF9131"/>
<rect width="10" height="10" transform="matrix(-1 0 0 1 163 85)" fill="#FF9131"/>
<rect width="10" height="10" transform="matrix(-1 0 0 1 83 95)" fill="#FF9131"/>
<rect width="10" height="10" transform="matrix(-1 0 0 1 93 95)" fill="#FF9131"/>
<rect width="10" height="10" transform="matrix(-1 0 0 1 103 95)" fill="#FF9131"/>
<rect width="10" height="10" transform="matrix(-1 0 0 1 113 95)" fill="#FF9131"/>
<rect width="10" height="10" transform="matrix(-1 0 0 1 123 95)" fill="#FF9131"/>
<rect width="10" height="10" transform="matrix(-1 0 0 1 133 95)" fill="#FF9131"/>
<rect width="10" height="10" transform="matrix(-1 0 0 1 143 95)" fill="#FF9131"/>
<rect width="10" height="10" transform="matrix(-1 0 0 1 153 95)" fill="#FF9131"/>
<rect width="10" height="10" transform="matrix(-1 0 0 1 163 95)" fill="#FF9131"/>
<rect width="10" height="10" transform="matrix(-1 0 0 1 173 95)" fill="#FF9131"/>
<rect width="10" height="10" transform="matrix(-1 0 0 1 83 105)" fill="#FF9131"/>
<rect width="10" height="10" transform="matrix(-1 0 0 1 93 105)" fill="#FF9131"/>
<rect width="10" height="10" transform="matrix(-1 0 0 1 103 105)" fill="#FF9131"/>
<rect width="10" height="10" transform="matrix(-1 0 0 1 113 105)" fill="#FF9131"/>
<rect width="10" height="10" transform="matrix(-1 0 0 1 123 105)" fill="#FF9131"/>
<rect width="10" height="10" transform="matrix(-1 0 0 1 133 105)" fill="#FF9131"/>
<rect width="10" height="10" transform="matrix(-1 0 0 1 143 105)" fill="#FF9131"/>
<rect width="10" height="10" transform="matrix(-1 0 0 1 153 105)" fill="#FF9131"/>
<rect width="10" height="10" transform="matrix(-1 0 0 1 163 105)" fill="#FF9131"/>
<rect width="10" height="10" transform="matrix(-1 0 0 1 173 105)" fill="#FF9131"/>
<rect width="10" height="10" transform="matrix(-1 0 0 1 73 115)" fill="#FF9131"/>
<rect width="10" height="10" transform="matrix(-1 0 0 1 83 115)" fill="#FF9131"/>
<rect width="10" height="10" transform="matrix(-1 0 0 1 93 115)" fill="#FF9131"/>
<rect width="10" height="10" transform="matrix(-1 0 0 1 103 115)" fill="#FF9131"/>
<rect width="10" height="10" transform="matrix(-1 0 0 1 113 115)" fill="#FF9131"/>
<rect width="10" height="10" transform="matrix(-1 0 0 1 123 115)" fill="#FF9131"/>
<rect width="10" height="10" transform="matrix(-1 0 0 1 133 115)" fill="#FF9131"/>
<rect width="10" height="10" transform="matrix(-1 0 0 1 143 115)" fill="#FF9131"/>
<rect width="10" height="10" transform="matrix(-1 0 0 1 153 115)" fill="#FF9131"/>
<rect width="10" height="10" transform="matrix(-1 0 0 1 163 115)" fill="#FF9131"/>
<rect width="10" height="10" transform="matrix(-1 0 0 1 173 115)" fill="#FF9131"/>
<rect width="10" height="10" transform="matrix(-1 0 0 1 183 115)" fill="#FF9131"/>
<rect width="10" height="10" transform="matrix(-1 0 0 1 73 125)" fill="#FF9131"/>
<rect width="10" height="10" transform="matrix(-1 0 0 1 83 125)" fill="#FF9131"/>
<rect width="10" height="10" transform="matrix(-1 0 0 1 93 125)" fill="#FF9131"/>
<rect width="10" height="10" transform="matrix(-1 0 0 1 103 125)" fill="#FF9131"/>
<rect width="10" height="10" transform="matrix(-1 0 0 1 113 125)" fill="#FF9131"/>
<rect width="10" height="10" transform="matrix(-1 0 0 1 123 125)" fill="#FF9131"/>
<rect width="10" height="10" transform="matrix(-1 0 0 1 133 125)" fill="#FF9131"/>
<rect width="10" height="10" transform="matrix(-1 0 0 1 143 125)" fill="#FF9131"/>
<rect width="10" height="10" transform="matrix(-1 0 0 1 153 125)" fill="#FF9131"/>
<rect width="10" height="10" transform="matrix(-1 0 0 1 163 125)" fill="#FF9131"/>
<rect width="10" height="10" transform="matrix(-1 0 0 1 173 125)" fill="#FF9131"/>
<rect width="10" height="10" transform="matrix(-1 0 0 1 183 125)" fill="#FF9131"/>
<rect width="10" height="10" transform="matrix(-1 0 0 1 73 135)" fill="#FF9131"/>
<rect width="10" height="10" transform="matrix(-1 0 0 1 83 135)" fill="#FF9131"/>
<rect width="10" height="10" transform="matrix(-1 0 0 1 93 135)" fill="#FF9131"/>
<rect width="10" height="10" transform="matrix(-1 0 0 1 103 135)" fill="#FF9131"/>
<rect width="10" height="10" transform="matrix(-1 0 0 1 113 135)" fill="#FF9131"/>
<rect width="10" height="10" transform="matrix(-1 0 0 1 123 135)" fill="#FF9131"/>
<rect width="10" height="10" transform="matrix(-1 0 0 1 133 135)" fill="#FF9131"/>
<rect width="10" height="10" transform="matrix(-1 0 0 1 143 135)" fill="#FF9131"/>
<rect width="10" height="10" transform="matrix(-1 0 0 1 153 135)" fill="#FF9131"/>
<rect width="10" height="10" transform="matrix(-1 0 0 1 163 135)" fill="#FF9131"/>
<rect width="10" height="10" transform="matrix(-1 0 0 1 173 135)" fill="#FF9131"/>
<rect width="10" height="10" transform="matrix(-1 0 0 1 183 135)" fill="#FF9131"/>
<rect width="10" height="10" transform="matrix(-1 0 0 1 73 145)" fill="#FF9131"/>
<rect width="10" height="10" transform="matrix(-1 0 0 1 83 145)" fill="#FF9131"/>
<rect width="10" height="10" transform="matrix(-1 0 0 1 93 145)" fill="#FF9131"/>
<rect width="10" height="10" transform="matrix(-1 0 0 1 103 145)" fill="#FF9131"/>
<rect width="10" height="10" transform="matrix(-1 0 0 1 113 145)" fill="#FF9131"/>
<rect width="10" height="10" transform="matrix(-1 0 0 1 123 145)" fill="#FF9131"/>
<rect width="10" height="10" transform="matrix(-1 0 0 1 133 145)" fill="#FF9131"/>
<rect width="10" height="10" transform="matrix(-1 0 0 1 143 145)" fill="#FF9131"/>
<rect width="10" height="10" transform="matrix(-1 0 0 1 153 145)" fill="#FF9131"/>
<rect width="10" height="10" transform="matrix(-1 0 0 1 163 145)" fill="#FF9131"/>
<rect width="10" height="10" transform="matrix(-1 0 0 1 173 145)" fill="#FF9131"/>
<rect width="10" height="10" transform="matrix(-1 0 0 1 183 145)" fill="#FF9131"/>
<rect width="10" height="10" transform="matrix(-1 0 0 1 83 155)" fill="#FF9131"/>
<rect width="10" height="10" transform="matrix(-1 0 0 1 93 155)" fill="#FF9131"/>
<rect width="10" height="10" transform="matrix(-1 0 0 1 103 155)" fill="#FF9131"/>
<rect width="10" height="10" transform="matrix(-1 0 0 1 113 155)" fill="#FF9131"/>
<rect width="10" height="10" transform="matrix(-1 0 0 1 123 155)" fill="#FF9131"/>
<rect width="10" height="10" transform="matrix(-1 0 0 1 133 155)" fill="#FFD889"/>
<rect width="10" height="10" transform="matrix(-1 0 0 1 143 155)" fill="#FF9131"/>
<rect width="10" height="10" transform="matrix(-1 0 0 1 153 155)" fill="#FF9131"/>
<rect width="10" height="10" transform="matrix(-1 0 0 1 163 155)" fill="#FF9131"/>
<rect width="10" height="10" transform="matrix(-1 0 0 1 173 155)" fill="#FF9131"/>
<rect width="10" height="10" transform="matrix(-1 0 0 1 83 165)" fill="#FF9131"/>
<rect width="10" height="10" transform="matrix(-1 0 0 1 93 165)" fill="#FF9131"/>
<rect width="10" height="10" transform="matrix(-1 0 0 1 103 165)" fill="#FFD889"/>
<rect width="10" height="10" transform="matrix(-1 0 0 1 113 165)" fill="#FFD889"/>
<rect width="10" height="10" transform="matrix(-1 0 0 1 123 165)" fill="#FFD889"/>
<rect width="10" height="10" transform="matrix(-1 0 0 1 133 165)" fill="#FF9131"/>
<rect width="10" height="10" transform="matrix(-1 0 0 1 143 165)" fill="#FF9131"/>
<rect width="10" height="10" transform="matrix(-1 0 0 1 153 165)" fill="#FF9131"/>
<rect width="10" height="10" transform="matrix(-1 0 0 1 163 165)" fill="#FF9131"/>
<rect width="10" height="10" transform="matrix(-1 0 0 1 173 165)" fill="#FF9131"/>
<rect width="10" height="10" transform="matrix(-1 0 0 1 93 175)" fill="#FF9131"/>
<rect width="10" height="10" transform="matrix(-1 0 0 1 103 175)" fill="#FF9131"/>
<rect width="10" height="10" transform="matrix(-1 0 0 1 113 175)" fill="#FF9131"/>
<rect width="10" height="10" transform="matrix(-1 0 0 1 123 175)" fill="#FF9131"/>
<rect width="10" height="10" transform="matrix(-1 0 0 1 133 175)" fill="#FF9131"/>
<rect width="10" height="10" transform="matrix(-1 0 0 1 143 175)" fill="#FF9131"/>
<rect width="10" height="10" transform="matrix(-1 0 0 1 153 175)" fill="#FF9131"/>
<rect width="10" height="10" transform="matrix(-1 0 0 1 163 175)" fill="#FF9131"/>
<rect width="10" height="10" transform="matrix(-1 0 0 1 113 185)" fill="#FF9131"/>
<rect width="10" height="10" transform="matrix(-1 0 0 1 123 185)" fill="#FF9131"/>
<rect width="10" height="10" transform="matrix(-1 0 0 1 133 185)" fill="#FF9131"/>
<rect width="10" height="10" transform="matrix(-1 0 0 1 143 185)" fill="#FF9131"/>
<rect width="10" height="10" transform="matrix(-1 0 0 1 113 75)" fill="#1BC02B"/>
<rect width="10" height="10" transform="matrix(-1 0 0 1 113 75)" fill="#1BC02B"/>
<rect width="10" height="10" transform="matrix(-1 0 0 1 113 85)" fill="#1BC02B"/>
<rect width="10" height="10" transform="matrix(-1 0 0 1 113 65)" fill="#1BC02B"/>
<rect width="10" height="10" transform="matrix(-1 0 0 1 103 55)" fill="#1BC02B"/>
<rect width="10" height="10" transform="matrix(-1 0 0 1 93 45)" fill="#1BC02B"/>
<rect width="10" height="10" transform="matrix(-1 0 0 1 123 55)" fill="#1BC02B"/>
<rect width="10" height="10" transform="matrix(-1 0 0 1 123 65)" fill="#1BC02B"/>
<rect width="10" height="10" transform="matrix(-1 0 0 1 133 45)" fill="#1BC02B"/>
<rect width="10" height="10" transform="matrix(-1 0 0 1 103 105)" fill="#A6A6A6"/>
<rect width="10" height="10" transform="matrix(-1 0 0 1 153 105)" fill="#A6A6A6"/>
<rect width="10" height="10" transform="matrix(-1 0 0 1 103 115)" fill="#5648ED"/>
<rect width="10" height="10" transform="matrix(-1 0 0 1 153 115)" fill="#5648ED"/>
<rect width="10" height="10" transform="matrix(-1 0 0 1 103 125)" fill="#5648ED"/>
<rect width="10" height="10" transform="matrix(-1 0 0 1 153 125)" fill="#5648ED"/>
<rect width="10" height="10" transform="matrix(-1 0 0 1 173 115)" fill="#383838"/>
<rect width="10" height="10" transform="matrix(-1 0 0 1 163 115)" fill="#383838"/>
<rect x="103" y="145" width="10" height="10" transform="rotate(-180 103 145)" fill="#5648ED"/>
<rect x="153" y="145" width="10" height="10" transform="rotate(-180 153 145)" fill="#5648ED"/>
<rect width="10" height="10" transform="matrix(-1 0 0 1 93 105)" fill="#383838"/>
<rect width="10" height="10" transform="matrix(-1 0 0 1 143 105)" fill="#383838"/>
<rect width="10" height="10" transform="matrix(-1 0 0 1 93 115)" fill="#383838"/>
<rect width="10" height="10" transform="matrix(-1 0 0 1 143 115)" fill="#383838"/>
<rect width="10" height="10" transform="matrix(-1 0 0 1 93 125)" fill="#383838"/>
<rect width="10" height="10" transform="matrix(-1 0 0 1 143 125)" fill="#383838"/>
<rect width="10" height="10" transform="matrix(-1 0 0 1 93 135)" fill="#5648ED"/>
<rect width="10" height="10" transform="matrix(-1 0 0 1 143 135)" fill="#5648ED"/>
<rect width="10" height="10" transform="matrix(-1 0 0 1 173 115)" fill="#8E8E8E"/>
<rect width="10" height="10" transform="matrix(-1 0 0 1 163 115)" fill="#8E8E8E"/>
<rect width="10" height="10" transform="matrix(-1 0 0 1 103 135)" fill="#5648ED"/>
<rect width="10" height="10" transform="matrix(-1 0 0 1 153 135)" fill="#5648ED"/>
<rect width="10" height="10" transform="matrix(-1 0 0 1 103 115)" fill="#5648ED"/>
<rect width="10" height="10" transform="matrix(-1 0 0 1 153 115)" fill="#5648ED"/>
<rect width="10" height="10" transform="matrix(-1 0 0 1 103 125)" fill="#5648ED"/>
<rect width="10" height="10" transform="matrix(-1 0 0 1 153 125)" fill="#5648ED"/>
<rect width="10" height="10" transform="matrix(-1 0 0 1 103 105)" fill="#8E8E8E"/>
<rect width="10" height="10" transform="matrix(-1 0 0 1 153 105)" fill="#8E8E8E"/>
<rect width="10" height="10" transform="matrix(-1 0 0 1 93 135)" fill="#5648ED"/>
<rect width="10" height="10" transform="matrix(-1 0 0 1 143 135)" fill="#5648ED"/>
<rect width="10" height="10" transform="matrix(-1 0 0 1 93 115)" fill="#8E8E8E"/>
<rect width="10" height="10" transform="matrix(-1 0 0 1 143 115)" fill="#8E8E8E"/>
<rect width="10" height="10" transform="matrix(-1 0 0 1 93 125)" fill="#8E8E8E"/>
<rect width="10" height="10" transform="matrix(-1 0 0 1 143 125)" fill="#8E8E8E"/>
<rect width="10" height="10" transform="matrix(-1 0 0 1 93 105)" fill="#8E8E8E"/>
<rect width="10" height="10" transform="matrix(-1 0 0 1 143 105)" fill="#8E8E8E"/>
<rect width="10" height="10" transform="matrix(-1 0 0 1 83 135)" fill="#5648ED"/>
<rect width="10" height="10" transform="matrix(-1 0 0 1 133 135)" fill="#5648ED"/>
<rect width="10" height="10" transform="matrix(-1 0 0 1 83 115)" fill="#8E8E8E"/>
<rect width="10" height="10" transform="matrix(-1 0 0 1 133 115)" fill="#8E8E8E"/>
<rect width="10" height="10" transform="matrix(-1 0 0 1 83 125)" fill="#8E8E8E"/>
<rect width="10" height="10" transform="matrix(-1 0 0 1 133 125)" fill="#8E8E8E"/>
<rect width="10" height="10" transform="matrix(-1 0 0 1 83 105)" fill="#8E8E8E"/>
<rect width="10" height="10" transform="matrix(-1 0 0 1 133 105)" fill="#8E8E8E"/>
<rect width="10" height="10" transform="matrix(-1 0 0 1 73 135)" fill="#5648ED"/>
<rect width="10" height="10" transform="matrix(-1 0 0 1 123 135)" fill="#5648ED"/>
<rect width="10" height="10" transform="matrix(-1 0 0 1 73 115)" fill="#8E8E8E"/>
<rect width="10" height="10" transform="matrix(-1 0 0 1 123 115)" fill="#8E8E8E"/>
<rect width="10" height="10" transform="matrix(-1 0 0 1 73 125)" fill="#8E8E8E"/>
<rect width="10" height="10" transform="matrix(-1 0 0 1 123 125)" fill="#8E8E8E"/>
<rect width="10" height="10" transform="matrix(-1 0 0 1 73 105)" fill="#8E8E8E"/>
<rect width="10" height="10" transform="matrix(-1 0 0 1 123 105)" fill="#8E8E8E"/>
<rect width="10" height="10" transform="matrix(-1 0 0 1 173 115)" fill="#5648ED"/>
<rect width="10" height="10" transform="matrix(-1 0 0 1 173 115)" fill="#5648ED"/>
<rect width="10" height="10" transform="matrix(-1 0 0 1 183 115)" fill="#5648ED"/>
<rect width="10" height="10" transform="matrix(-1 0 0 1 163 115)" fill="#5648ED"/>
<rect width="10" height="10" transform="matrix(-1 0 0 1 93 115)" fill="#5648ED"/>
<rect width="10" height="10" transform="matrix(-1 0 0 1 93 115)" fill="white"/>
<rect width="10" height="10" transform="matrix(-1 0 0 1 143 115)" fill="#5648ED"/>
<rect width="10" height="10" transform="matrix(-1 0 0 1 143 115)" fill="white"/>
<rect width="10" height="10" transform="matrix(-1 0 0 1 83 115)" fill="#5648ED"/>
<rect width="10" height="10" transform="matrix(-1 0 0 1 83 115)" fill="black"/>
<rect width="10" height="10" transform="matrix(-1 0 0 1 133 115)" fill="#5648ED"/>
<rect width="10" height="10" transform="matrix(-1 0 0 1 133 115)" fill="black"/>
<rect width="10" height="10" transform="matrix(-1 0 0 1 103 125)" fill="#5648ED"/>
<rect width="10" height="10" transform="matrix(-1 0 0 1 153 125)" fill="#5648ED"/>
<rect width="10" height="10" transform="matrix(-1 0 0 1 103 115)" fill="#5648ED"/>
<rect width="10" height="10" transform="matrix(-1 0 0 1 153 115)" fill="#5648ED"/>
<rect width="10" height="10" transform="matrix(-1 0 0 1 93 125)" fill="#5648ED"/>
<rect width="10" height="10" transform="matrix(-1 0 0 1 93 125)" fill="white"/>
<rect width="10" height="10" transform="matrix(-1 0 0 1 143 125)" fill="#5648ED"/>
<rect width="10" height="10" transform="matrix(-1 0 0 1 143 125)" fill="white"/>
<rect width="10" height="10" transform="matrix(-1 0 0 1 83 125)" fill="#5648ED"/>
<rect width="10" height="10" transform="matrix(-1 0 0 1 83 125)" fill="black"/>
<rect width="10" height="10" transform="matrix(-1 0 0 1 133 125)" fill="#5648ED"/>
<rect width="10" height="10" transform="matrix(-1 0 0 1 133 125)" fill="black"/>
<rect width="10" height="10" transform="matrix(-1 0 0 1 103 135)" fill="#5648ED"/>
<rect width="10" height="10" transform="matrix(-1 0 0 1 153 135)" fill="#5648ED"/>
<rect width="10" height="10" transform="matrix(-1 0 0 1 93 135)" fill="#5648ED"/>
<rect width="10" height="10" transform="matrix(-1 0 0 1 93 135)" fill="#5648ED"/>
<rect width="10" height="10" transform="matrix(-1 0 0 1 143 135)" fill="#5648ED"/>
<rect width="10" height="10" transform="matrix(-1 0 0 1 143 135)" fill="#5648ED"/>
<rect width="10" height="10" transform="matrix(-1 0 0 1 83 135)" fill="#5648ED"/>
<rect width="10" height="10" transform="matrix(-1 0 0 1 83 135)" fill="#5648ED"/>
<rect width="10" height="10" transform="matrix(-1 0 0 1 133 135)" fill="#5648ED"/>
<rect width="10" height="10" transform="matrix(-1 0 0 1 133 135)" fill="#5648ED"/>
<rect width="10" height="10" transform="matrix(-1 0 0 1 113 115)" fill="#5648ED"/>
<rect width="10" height="10" transform="matrix(-1 0 0 1 103 105)" fill="#5648ED"/>
<rect width="10" height="10" transform="matrix(-1 0 0 1 153 105)" fill="#5648ED"/>
<rect width="10" height="10" transform="matrix(-1 0 0 1 93 105)" fill="#5648ED"/>
<rect width="10" height="10" transform="matrix(-1 0 0 1 143 105)" fill="#5648ED"/>
<rect width="10" height="10" transform="matrix(-1 0 0 1 83 105)" fill="#5648ED"/>
<rect width="10" height="10" transform="matrix(-1 0 0 1 133 105)" fill="#5648ED"/>
<rect width="10" height="10" transform="matrix(-1 0 0 1 73 105)" fill="#5648ED"/>
<rect width="10" height="10" transform="matrix(-1 0 0 1 123 105)" fill="#5648ED"/>
<rect width="10" height="10" transform="matrix(-1 0 0 1 73 115)" fill="#5648ED"/>
<rect width="10" height="10" transform="matrix(-1 0 0 1 123 115)" fill="#5648ED"/>
<rect width="10" height="10" transform="matrix(-1 0 0 1 73 125)" fill="#5648ED"/>
<rect width="10" height="10" transform="matrix(-1 0 0 1 123 125)" fill="#5648ED"/>
<rect width="10" height="10" transform="matrix(-1 0 0 1 73 135)" fill="#5648ED"/>
<rect width="10" height="10" transform="matrix(-1 0 0 1 123 135)" fill="#5648ED"/>
<rect width="10" height="10" transform="matrix(-1 0 0 1 183 125)" fill="#5648ED"/>
<path d="M308.069 121.797C308.069 126.221 307.305 130.276 305.778 133.963C304.251 137.597 302.118 140.731 299.379 143.364C296.693 145.945 293.48 147.946 289.741 149.368C286.002 150.79 281.946 151.501 277.575 151.501C273.204 151.501 269.148 150.79 265.409 149.368C261.722 147.946 258.51 145.945 255.771 143.364C253.085 140.731 250.978 137.597 249.451 133.963C247.924 130.276 247.16 126.221 247.16 121.797C247.16 117.32 247.924 113.291 249.451 109.71C250.978 106.076 253.085 102.995 255.771 100.467C258.51 97.939 261.722 95.9903 265.409 94.621C269.148 93.2517 273.204 92.567 277.575 92.567C281.946 92.567 286.002 93.2517 289.741 94.621C293.48 95.9903 296.693 97.939 299.379 100.467C302.118 102.995 304.251 106.076 305.778 109.71C307.305 113.291 308.069 117.32 308.069 121.797ZM293.612 121.797C293.612 119.374 293.217 117.11 292.427 115.003C291.637 112.896 290.531 111.106 289.109 109.631C287.74 108.104 286.054 106.919 284.053 106.076C282.104 105.181 279.945 104.733 277.575 104.733C275.205 104.733 273.046 105.181 271.097 106.076C269.148 106.919 267.463 108.104 266.041 109.631C264.619 111.106 263.513 112.896 262.723 115.003C261.986 117.11 261.617 119.374 261.617 121.797C261.617 124.325 262.012 126.669 262.802 128.828C263.592 130.935 264.672 132.752 266.041 134.279C267.463 135.806 269.148 137.018 271.097 137.913C273.046 138.756 275.205 139.177 277.575 139.177C279.945 139.177 282.104 138.756 284.053 137.913C286.002 137.018 287.687 135.806 289.109 134.279C290.531 132.752 291.637 130.935 292.427 128.828C293.217 126.669 293.612 124.325 293.612 121.797ZM341.769 121.244C341.19 121.086 340.611 120.981 340.031 120.928C339.505 120.875 338.978 120.849 338.451 120.849C336.713 120.849 335.239 121.165 334.027 121.797C332.869 122.429 331.921 123.193 331.183 124.088C330.499 124.983 329.998 125.958 329.682 127.011C329.366 128.064 329.208 128.986 329.208 129.776V150H316.252V110.658H328.734V116.346H328.892C329.893 114.345 331.315 112.712 333.158 111.448C335.002 110.184 337.135 109.552 339.557 109.552C340.084 109.552 340.584 109.578 341.058 109.631C341.585 109.684 342.006 109.763 342.322 109.868L341.769 121.244ZM369.566 132.857H367.907C366.485 132.857 365.037 132.936 363.562 133.094C362.14 133.199 360.85 133.436 359.691 133.805C358.585 134.174 357.664 134.727 356.926 135.464C356.189 136.149 355.82 137.07 355.82 138.229C355.82 138.966 355.978 139.598 356.294 140.125C356.663 140.652 357.111 141.073 357.637 141.389C358.164 141.705 358.77 141.942 359.454 142.1C360.139 142.205 360.797 142.258 361.429 142.258C364.063 142.258 366.064 141.547 367.433 140.125C368.855 138.65 369.566 136.675 369.566 134.2V132.857ZM345.787 116.03C348.105 113.818 350.791 112.159 353.845 111.053C356.953 109.947 360.113 109.394 363.325 109.394C366.643 109.394 369.435 109.815 371.699 110.658C374.017 111.448 375.886 112.712 377.308 114.45C378.73 116.135 379.757 118.295 380.389 120.928C381.074 123.509 381.416 126.59 381.416 130.171V150H369.566V145.813H369.329C368.329 147.446 366.801 148.71 364.747 149.605C362.746 150.5 360.56 150.948 358.19 150.948C356.61 150.948 354.978 150.737 353.292 150.316C351.607 149.895 350.053 149.21 348.631 148.262C347.262 147.314 346.13 146.05 345.234 144.47C344.339 142.89 343.891 140.941 343.891 138.624C343.891 135.78 344.655 133.489 346.182 131.751C347.762 130.013 349.764 128.67 352.186 127.722C354.662 126.774 357.4 126.142 360.402 125.826C363.404 125.51 366.327 125.352 369.171 125.352V124.72C369.171 122.771 368.487 121.349 367.117 120.454C365.748 119.506 364.063 119.032 362.061 119.032C360.218 119.032 358.427 119.427 356.689 120.217C355.004 121.007 353.556 121.955 352.344 123.061L345.787 116.03ZM416.919 150V128.512C416.919 127.406 416.814 126.353 416.603 125.352C416.445 124.351 416.156 123.482 415.734 122.745C415.313 121.955 414.707 121.349 413.917 120.928C413.18 120.454 412.232 120.217 411.073 120.217C409.915 120.217 408.888 120.454 407.992 120.928C407.15 121.349 406.439 121.955 405.859 122.745C405.28 123.535 404.832 124.457 404.516 125.51C404.253 126.511 404.121 127.564 404.121 128.67V150H391.086V110.658H403.647V116.109H403.805C404.279 115.266 404.885 114.45 405.622 113.66C406.412 112.817 407.308 112.106 408.308 111.527C409.362 110.948 410.494 110.474 411.705 110.105C412.917 109.736 414.207 109.552 415.576 109.552C418.21 109.552 420.448 110.026 422.291 110.974C424.135 111.922 425.609 113.16 426.715 114.687C427.874 116.162 428.69 117.873 429.164 119.822C429.691 121.771 429.954 123.719 429.954 125.668V150H416.919ZM481.479 146.287C481.479 150.132 480.926 153.476 479.82 156.32C478.714 159.164 477.16 161.508 475.159 163.351C473.158 165.247 470.709 166.643 467.812 167.538C464.968 168.486 461.808 168.96 458.332 168.96C454.856 168.96 451.275 168.433 447.588 167.38C443.954 166.327 440.794 164.799 438.108 162.798L444.586 153.555C446.482 155.24 448.562 156.478 450.827 157.268C453.144 158.111 455.409 158.532 457.621 158.532C461.413 158.532 464.204 157.531 465.995 155.53C467.838 153.529 468.76 150.869 468.76 147.551V145.181H468.523C467.312 146.761 465.679 148.025 463.625 148.973C461.571 149.921 459.227 150.395 456.594 150.395C453.592 150.395 450.932 149.868 448.615 148.815C446.298 147.709 444.323 146.234 442.69 144.391C441.11 142.548 439.899 140.415 439.056 137.992C438.213 135.517 437.792 132.91 437.792 130.171C437.792 127.432 438.213 124.825 439.056 122.35C439.899 119.875 441.11 117.689 442.69 115.793C444.323 113.897 446.298 112.396 448.615 111.29C450.932 110.131 453.566 109.552 456.515 109.552C458.99 109.552 461.36 110.052 463.625 111.053C465.89 112.054 467.707 113.607 469.076 115.714H469.234V110.658H481.479V146.287ZM469.155 130.092C469.155 128.775 468.918 127.511 468.444 126.3C468.023 125.089 467.391 124.035 466.548 123.14C465.705 122.192 464.705 121.455 463.546 120.928C462.387 120.401 461.071 120.138 459.596 120.138C458.121 120.138 456.805 120.401 455.646 120.928C454.54 121.455 453.592 122.166 452.802 123.061C452.012 123.956 451.406 125.01 450.985 126.221C450.564 127.432 450.353 128.723 450.353 130.092C450.353 131.409 450.564 132.673 450.985 133.884C451.406 135.095 452.012 136.175 452.802 137.123C453.592 138.018 454.54 138.756 455.646 139.335C456.805 139.862 458.121 140.125 459.596 140.125C461.071 140.125 462.387 139.862 463.546 139.335C464.757 138.756 465.758 138.018 466.548 137.123C467.391 136.228 468.023 135.174 468.444 133.963C468.918 132.752 469.155 131.461 469.155 130.092ZM518.862 125.826C518.862 123.772 518.204 122.008 516.887 120.533C515.623 119.058 513.701 118.321 511.12 118.321C509.856 118.321 508.697 118.532 507.644 118.953C506.591 119.322 505.669 119.848 504.879 120.533C504.089 121.218 503.457 122.034 502.983 122.982C502.509 123.877 502.246 124.825 502.193 125.826H518.862ZM530.791 130.803C530.791 131.33 530.791 131.856 530.791 132.383C530.791 132.91 530.765 133.41 530.712 133.884H502.193C502.298 134.99 502.614 135.991 503.141 136.886C503.72 137.781 504.431 138.571 505.274 139.256C506.169 139.888 507.144 140.388 508.197 140.757C509.303 141.126 510.435 141.31 511.594 141.31C513.648 141.31 515.386 140.941 516.808 140.204C518.23 139.414 519.389 138.413 520.284 137.202L529.29 142.89C527.447 145.576 524.998 147.656 521.943 149.131C518.941 150.553 515.439 151.264 511.436 151.264C508.487 151.264 505.695 150.816 503.062 149.921C500.429 148.973 498.111 147.63 496.11 145.892C494.161 144.101 492.608 141.916 491.449 139.335C490.343 136.754 489.79 133.805 489.79 130.487C489.79 127.274 490.343 124.378 491.449 121.797C492.555 119.164 494.056 116.952 495.952 115.161C497.848 113.318 500.086 111.896 502.667 110.895C505.248 109.894 508.039 109.394 511.041 109.394C513.938 109.394 516.597 109.894 519.02 110.895C521.443 111.843 523.523 113.239 525.261 115.082C526.999 116.925 528.342 119.164 529.29 121.797C530.291 124.43 530.791 127.432 530.791 130.803ZM611.506 121.876C611.506 126.774 610.584 131.014 608.741 134.595C606.95 138.124 604.554 141.047 601.552 143.364C598.602 145.629 595.258 147.314 591.519 148.42C587.779 149.473 583.987 150 580.143 150H559.287V94.068H579.511C583.461 94.068 587.358 94.542 591.203 95.49C595.047 96.3853 598.471 97.9127 601.473 100.072C604.475 102.179 606.897 105.023 608.741 108.604C610.584 112.185 611.506 116.609 611.506 121.876ZM597.444 121.876C597.444 118.716 596.917 116.109 595.864 114.055C594.863 111.948 593.494 110.289 591.756 109.078C590.07 107.814 588.122 106.919 585.91 106.392C583.75 105.865 581.512 105.602 579.195 105.602H572.48V138.308H578.879C581.301 138.308 583.619 138.045 585.831 137.518C588.095 136.939 590.07 136.017 591.756 134.753C593.494 133.489 594.863 131.804 595.864 129.697C596.917 127.59 597.444 124.983 597.444 121.876ZM656.457 150L652.112 139.019H630.466L626.358 150H611.664L635.127 94.068H648.241L671.467 150H656.457ZM641.447 108.999L634.337 128.196H648.399L641.447 108.999ZM733.003 121.797C733.003 126.221 732.239 130.276 730.712 133.963C729.184 137.597 727.051 140.731 724.313 143.364C721.627 145.945 718.414 147.946 714.675 149.368C710.935 150.79 706.88 151.501 702.509 151.501C698.137 151.501 694.082 150.79 690.343 149.368C686.656 147.946 683.443 145.945 680.705 143.364C678.019 140.731 675.912 137.597 674.385 133.963C672.857 130.276 672.094 126.221 672.094 121.797C672.094 117.32 672.857 113.291 674.385 109.71C675.912 106.076 678.019 102.995 680.705 100.467C683.443 97.939 686.656 95.9903 690.343 94.621C694.082 93.2517 698.137 92.567 702.509 92.567C706.88 92.567 710.935 93.2517 714.675 94.621C718.414 95.9903 721.627 97.939 724.313 100.467C727.051 102.995 729.184 106.076 730.712 109.71C732.239 113.291 733.003 117.32 733.003 121.797ZM718.546 121.797C718.546 119.374 718.151 117.11 717.361 115.003C716.571 112.896 715.465 111.106 714.043 109.631C712.673 108.104 710.988 106.919 708.987 106.076C707.038 105.181 704.879 104.733 702.509 104.733C700.139 104.733 697.979 105.181 696.031 106.076C694.082 106.919 692.397 108.104 690.975 109.631C689.553 111.106 688.447 112.896 687.657 115.003C686.919 117.11 686.551 119.374 686.551 121.797C686.551 124.325 686.946 126.669 687.736 128.828C688.526 130.935 689.605 132.752 690.975 134.279C692.397 135.806 694.082 137.018 696.031 137.913C697.979 138.756 700.139 139.177 702.509 139.177C704.879 139.177 707.038 138.756 708.987 137.913C710.935 137.018 712.621 135.806 714.043 134.279C715.465 132.752 716.571 130.935 717.361 128.828C718.151 126.669 718.546 124.325 718.546 121.797Z" fill="black"/>
</svg>
