<svg width="183" height="88" fill="none" xmlns="http://www.w3.org/2000/svg"><path d="M71.54 84.484l3.108-3.106a7.03 7.03 0 005.407 2.47c2.29 0 3.398-1.036 3.398-2.59 0-1.175-.518-2.04-2.502-2.319l-2.134-.28c-4.542-.585-6.614-2.811-6.614-6.425 0-3.862 3.03-6.55 8.096-6.55 3.247 0 5.697 1.082 7.479 3.03l-3.108 3.152a5.642 5.642 0 00-4.662-2.04c-2.102 0-3.107.803-3.107 2.103 0 1.48.772 2.04 2.59 2.32l2.133.34c4.419.71 6.553 2.688 6.553 6.395 0 4.142-3.03 7.016-8.407 7.016-3.812-.026-6.37-1.48-8.23-3.516zM96.39 87.601c-3.154 0-4.821-1.636-4.821-4.727v-7.937h-2.29v-3.552h1.145c1.238 0 1.606-.616 1.606-1.73V67h4.112v4.386h3.217v3.552h-3.217v9.112h2.968v3.552h-2.72zM101.462 87.601V71.38h4.568v3.52h.156c.373-1.79 1.605-3.52 4.143-3.52h.803v4.261h-1.145c-2.657 0-3.957.585-3.957 2.47v9.485l-4.568.005zM112.001 79.478c0-5.131 2.719-8.466 7.603-8.466 5.377 0 7.542 3.894 7.542 8.284v1.362H116.73v.249c0 2.133 1.144 3.49 3.584 3.49 1.916 0 2.968-.896 3.988-1.947l2.29 2.842c-1.451 1.667-3.833 2.687-6.801 2.687-4.957-.005-7.79-3.313-7.79-8.501zm4.729-1.76v.248h5.697v-.3c0-1.978-.896-3.309-2.719-3.309s-2.978 1.351-2.978 3.36zM141.613 87.601c-1.637 0-2.812-1.113-3.107-2.842h-.187c-.518 2.102-2.289 3.215-4.76 3.215-3.247 0-5.039-1.916-5.039-4.727 0-3.428 2.657-5.069 6.956-5.069h2.589v-1.035c0-1.554-.771-2.59-2.688-2.59a4.01 4.01 0 00-3.491 1.916l-2.719-2.407c1.3-1.916 3.154-3.107 6.552-3.107 4.573 0 6.925 2.102 6.925 5.934v7.109h1.512v3.552l-2.543.051zm-3.553-4.913v-1.916h-2.227c-1.761 0-2.688.647-2.688 1.823v.466c0 1.175.772 1.729 2.134 1.729 1.512 0 2.776-.616 2.776-2.097l.005-.005zM146.124 87.601V71.38h4.573v2.749h.187a4.33 4.33 0 014.356-3.107 4.49 4.49 0 014.542 3.278h.114c.585-1.823 2.471-3.278 4.947-3.278 3.107 0 4.853 2.351 4.853 6.426v10.164h-4.62V77.81c0-2.102-.71-3.106-2.227-3.106-1.363 0-2.689.771-2.689 2.376v10.506h-4.573V77.81c0-2.102-.741-3.106-2.227-3.106-1.331 0-2.688.771-2.688 2.376v10.506l-4.548.015zM172.363 87.601V71.38h4.574v3.52h.155c.373-1.79 1.606-3.52 4.144-3.52h.803v4.261h-1.145c-2.657 0-3.957.585-3.957 2.47v9.485l-4.574.005z" fill="#0D009A"/><path d="M54.754 4.066V1.555A1.553 1.553 0 0053.138 0c-16.993.84-30.54 14.497-31.238 31.49a1.34 1.34 0 001.409 1.347h2.59c.8.007 1.465-.611 1.517-1.409.734-14.005 11.929-25.196 25.94-25.93 1.066-.134 1.408-.719 1.408-1.428l-.01-.005zM31.669 32.864h2.455a1.502 1.502 0 001.502-1.388c.68-9.545 8.302-17.124 17.853-17.754.75-.053 1.319-.7 1.275-1.45v-2.5a1.553 1.553 0 00-1.632-1.518c-12.339.817-22.167 10.639-22.986 22.974a1.553 1.553 0 001.517 1.63l.016.006zm23.085-14.845v2.512a1.47 1.47 0 01-1.326 1.45 10.968 10.968 0 00-9.551 9.516 1.554 1.554 0 01-1.513 1.361h-2.17c-1.18 0-1.89-.766-1.802-1.651a16.447 16.447 0 0114.714-14.705 1.518 1.518 0 011.648 1.517zM83.54 54.703c-.71 0-1.295-.342-1.43-1.408-.724-14.023-11.936-25.23-25.964-25.95a1.507 1.507 0 01-1.409-1.518v-2.589a1.34 1.34 0 011.347-1.408c17.001.695 30.666 14.238 31.506 31.226a1.553 1.553 0 01-1.522 1.621l-2.528.026zM54.754 31.616a1.553 1.553 0 011.636-1.517c12.335.818 22.16 10.637 22.981 22.968a1.553 1.553 0 01-1.517 1.636h-2.502a1.372 1.372 0 01-1.45-1.29c-.635-9.542-8.213-17.154-17.755-17.836a1.502 1.502 0 01-1.388-1.502l-.005-2.46zm14.844 23.082H67.08a1.47 1.47 0 01-1.45-1.326 10.968 10.968 0 00-9.526-9.547 1.553 1.553 0 01-1.362-1.512v-2.444a1.517 1.517 0 011.652-1.517A16.447 16.447 0 0171.11 53.056a1.517 1.517 0 01-1.517 1.647l.005-.005zM4.036 32.853c.71 0 1.295.342 1.43 1.409.725 14.028 11.946 25.236 25.98 25.95a1.507 1.507 0 011.409 1.517v2.589a1.34 1.34 0 01-1.347 1.408C14.507 65.032.842 51.49.001 34.5a1.553 1.553 0 011.523-1.62l2.512-.027zM32.84 55.92a1.553 1.553 0 01-1.636 1.517c-12.328-.82-22.148-10.63-22.977-22.953a1.553 1.553 0 011.518-1.636h2.502a1.373 1.373 0 011.45 1.29c.632 9.542 8.208 17.157 17.75 17.842.785.06 1.39.714 1.388 1.501l.005 2.439zM17.98 32.853h2.512a1.47 1.47 0 011.45 1.326 10.968 10.968 0 009.526 9.547c.767.096 1.347.74 1.362 1.512v2.45a1.517 1.517 0 01-1.642 1.5 16.447 16.447 0 01-14.715-14.704 1.517 1.517 0 011.507-1.63zm14.855 50.705c0-.71.342-1.295 1.409-1.43 14.028-.72 25.24-11.927 25.965-25.95a1.507 1.507 0 011.517-1.408h2.59a1.342 1.342 0 011.409 1.346c-.698 16.996-14.248 30.653-31.243 31.49a1.554 1.554 0 01-1.621-1.521l-.026-2.527zM55.93 54.765a1.554 1.554 0 011.518 1.636c-.822 12.33-10.646 22.15-22.981 22.968a1.554 1.554 0 01-1.637-1.517v-2.5a1.372 1.372 0 011.29-1.45c9.545-.632 17.163-8.205 17.848-17.744.06-.785.715-1.39 1.502-1.388l2.46-.005zm-23.085 14.84v-2.512a1.47 1.47 0 011.326-1.45 10.968 10.968 0 009.551-9.516 1.554 1.554 0 011.513-1.362h2.17c1.18 0 1.89.766 1.802 1.652A16.447 16.447 0 0134.491 71.12a1.518 1.518 0 01-1.647-1.517zm0 13.953c0-.71.342-1.295 1.41-1.43 14.027-.72 25.24-11.927 25.964-25.95a1.507 1.507 0 011.517-1.408h2.59a1.342 1.342 0 011.409 1.346c-.697 16.996-14.247 30.653-31.242 31.49a1.554 1.554 0 01-1.622-1.521l-.026-2.527zM55.94 54.765a1.554 1.554 0 011.517 1.636c-.821 12.33-10.646 22.15-22.981 22.968a1.554 1.554 0 01-1.637-1.517v-2.5a1.372 1.372 0 011.29-1.45c9.546-.632 17.163-8.205 17.848-17.744.06-.785.715-1.39 1.502-1.388l2.46-.005zm-23.096 14.84v-2.512a1.47 1.47 0 011.326-1.45 10.968 10.968 0 009.551-9.516 1.554 1.554 0 011.513-1.362h2.17c1.18 0 1.89.766 1.802 1.652A16.447 16.447 0 0134.491 71.12a1.518 1.518 0 01-1.647-1.517z" fill="#FF5C00"/></svg>