<svg width="229" height="47" viewBox="0 0 229 47" fill="none" xmlns="http://www.w3.org/2000/svg">
<path d="M5.12002 15.232L6.91202 6.91201H13.376V15.232H22.144V21.888H13.376V34.432C13.376 36.352 13.6747 37.696 14.272 38.464C14.912 39.1894 15.9147 39.552 17.28 39.552C17.92 39.552 18.6454 39.488 19.456 39.36C20.2667 39.1894 21.1627 38.9974 22.144 38.784V45.568C19.456 46.336 17.024 46.72 14.848 46.72C11.776 46.72 9.38668 45.9734 7.68002 44.48C5.97335 42.944 5.12002 40.6827 5.12002 37.696V21.888H1.59144e-05V15.232H5.12002ZM23.7395 30.72C23.7395 28.5013 24.1662 26.432 25.0195 24.512C25.8729 22.5493 27.0462 20.8427 28.5395 19.392C30.0329 17.9413 31.8035 16.8107 33.8515 16C35.9422 15.1467 38.2035 14.72 40.6355 14.72C43.0675 14.72 45.3289 15.1467 47.4195 16C49.5102 16.8107 51.3022 17.9413 52.7955 19.392C54.2889 20.8427 55.4622 22.5493 56.3155 24.512C57.1689 26.432 57.5955 28.5013 57.5955 30.72C57.5955 32.9387 57.1689 35.0293 56.3155 36.992C55.4622 38.912 54.2889 40.5974 52.7955 42.048C51.3022 43.4987 49.5102 44.6507 47.4195 45.504C45.3289 46.3574 43.0675 46.784 40.6355 46.784C38.2035 46.784 35.9422 46.3574 33.8515 45.504C31.8035 44.6507 30.0329 43.4987 28.5395 42.048C27.0462 40.5974 25.8729 38.912 25.0195 36.992C24.1662 35.0293 23.7395 32.9387 23.7395 30.72ZM31.8035 30.656C31.8035 31.8507 32.0169 33.0027 32.4435 34.112C32.9129 35.1787 33.5315 36.1174 34.2995 36.928C35.0675 37.7387 35.9849 38.3787 37.0515 38.848C38.1182 39.3174 39.2915 39.552 40.5715 39.552C41.8515 39.552 43.0249 39.3174 44.0915 38.848C45.1582 38.3787 46.0755 37.7387 46.8435 36.928C47.6115 36.1174 48.2089 35.1787 48.6355 34.112C49.1049 33.0027 49.3395 31.8507 49.3395 30.656C49.3395 29.4187 49.1049 28.2667 48.6355 27.2C48.2089 26.1333 47.6115 25.1947 46.8435 24.384C46.0755 23.5733 45.1582 22.9333 44.0915 22.464C43.0249 21.9947 41.8515 21.76 40.5715 21.76C39.2915 21.76 38.1182 21.9947 37.0515 22.464C35.9849 22.9333 35.0675 23.5733 34.2995 24.384C33.5315 25.1947 32.9129 26.1333 32.4435 27.2C32.0169 28.2667 31.8035 29.4187 31.8035 30.656ZM69.0715 46.08H60.8795V1.52588e-05H69.0715V28.096L80.6555 15.232H91.2155L79.0555 27.584L92.3675 46.08H82.3835L73.1035 33.024L69.0715 37.12V46.08ZM119.608 42.752C119.053 43.1787 118.349 43.6267 117.496 44.096C116.685 44.5654 115.725 45.0134 114.616 45.44C113.549 45.824 112.354 46.144 111.032 46.4C109.752 46.656 108.408 46.784 107 46.784C104.525 46.784 102.285 46.3787 100.28 45.568C98.2742 44.7147 96.5462 43.5627 95.0955 42.112C93.6875 40.6614 92.5995 38.9547 91.8315 36.992C91.0635 35.0293 90.6795 32.9387 90.6795 30.72C90.6795 28.4587 91.0849 26.368 91.8955 24.448C92.7062 22.4853 93.8155 20.8 95.2235 19.392C96.6742 17.9413 98.4022 16.8107 100.408 16C102.413 15.1467 104.61 14.72 107 14.72C109.517 14.72 111.757 15.1467 113.72 16C115.725 16.8107 117.41 17.9413 118.776 19.392C120.141 20.8 121.165 22.4853 121.848 24.448C122.573 26.368 122.936 28.4587 122.936 30.72C122.936 31.1893 122.914 31.68 122.872 32.192C122.829 32.6613 122.765 33.1307 122.68 33.6L99.3195 33.536C99.8315 35.584 100.834 37.1414 102.328 38.208C103.864 39.232 105.634 39.744 107.64 39.744C108.749 39.744 109.73 39.6587 110.584 39.488C111.437 39.2747 112.184 39.0187 112.824 38.72C113.464 38.4214 113.997 38.1227 114.424 37.824C114.893 37.5253 115.256 37.248 115.512 36.992L119.608 42.752ZM114.616 28.288C114.53 26.2827 113.848 24.6827 112.568 23.488C111.288 22.2507 109.517 21.632 107.256 21.632C105.122 21.632 103.33 22.2293 101.88 23.424C100.472 24.576 99.5542 26.1973 99.1275 28.288H114.616ZM134.949 46.08H126.757V15.232H133.797L134.181 20.032C135.418 18.4107 136.89 17.1093 138.597 16.128C140.304 15.104 142.181 14.592 144.229 14.592C146.362 14.592 148.197 14.9547 149.733 15.68C151.269 16.4053 152.528 17.408 153.509 18.688C154.49 19.9253 155.216 21.4187 155.685 23.168C156.154 24.8747 156.389 26.7307 156.389 28.736V46.08H148.197V29.504C148.197 28.48 148.09 27.52 147.877 26.624C147.706 25.728 147.386 24.96 146.917 24.32C146.49 23.6374 145.893 23.104 145.125 22.72C144.357 22.336 143.376 22.144 142.181 22.144C141.157 22.144 140.197 22.3573 139.301 22.784C138.405 23.2107 137.637 23.808 136.997 24.576C136.357 25.3013 135.845 26.1547 135.461 27.136C135.12 28.1174 134.949 29.1627 134.949 30.272V46.08ZM179.275 23.936C179.104 23.808 178.827 23.5947 178.443 23.296C178.059 22.9974 177.59 22.6987 177.035 22.4C176.48 22.1014 175.84 21.8453 175.115 21.632C174.432 21.4187 173.686 21.312 172.875 21.312C171.51 21.312 170.528 21.568 169.931 22.08C169.376 22.5493 169.099 23.1253 169.099 23.808C169.099 24.5333 169.398 25.1307 169.995 25.6C170.592 26.0693 171.638 26.5173 173.131 26.944C174.24 27.2853 175.52 27.6267 176.971 27.968C178.422 28.3093 179.787 28.8214 181.067 29.504C182.347 30.144 183.414 31.0187 184.267 32.128C185.163 33.2374 185.611 34.7307 185.611 36.608C185.611 39.68 184.416 42.1547 182.027 44.032C179.68 45.8667 176.48 46.784 172.427 46.784C169.526 46.784 166.944 46.3787 164.683 45.568C162.464 44.7147 160.779 43.6907 159.627 42.496L164.555 36.864C164.726 37.0347 165.046 37.2907 165.515 37.632C165.984 37.9734 166.539 38.3147 167.179 38.656C167.862 38.9974 168.63 39.296 169.483 39.552C170.379 39.808 171.339 39.936 172.363 39.936C173.643 39.936 174.731 39.7227 175.627 39.296C176.523 38.8267 176.971 38.1227 176.971 37.184C176.971 35.8187 175.606 34.7734 172.875 34.048C171.424 33.6213 169.952 33.1947 168.459 32.768C166.966 32.2987 165.6 31.7227 164.363 31.04C163.168 30.3147 162.166 29.44 161.355 28.416C160.587 27.3493 160.203 26.0267 160.203 24.448C160.203 22.912 160.502 21.5467 161.099 20.352C161.739 19.1147 162.614 18.0693 163.723 17.216C164.832 16.32 166.155 15.6587 167.691 15.232C169.27 14.7627 171.019 14.528 172.939 14.528C174.475 14.528 175.862 14.6773 177.099 14.976C178.336 15.232 179.424 15.5733 180.363 16C181.344 16.384 182.155 16.7893 182.795 17.216C183.435 17.6427 183.904 18.0053 184.203 18.304L179.275 23.936ZM207.171 14.272C207.171 13.504 206.851 12.7573 206.211 12.032C205.571 11.3067 204.717 10.944 203.651 10.944C202.669 10.944 201.901 11.264 201.347 11.904C200.792 12.544 200.515 13.248 200.515 14.016C200.515 14.9973 200.835 15.936 201.475 16.832C202.157 17.728 203.245 18.9653 204.739 20.544L215.939 32.384C216.451 31.1467 216.707 29.76 216.707 28.224H224.899C224.899 30.1013 224.6 31.8933 224.003 33.6C223.405 35.3067 222.573 36.9067 221.507 38.4L228.739 46.08H219.779L216.899 43.072C215.277 44.3094 213.464 45.2694 211.459 45.952C209.453 46.592 207.363 46.912 205.187 46.912C202.712 46.912 200.429 46.6134 198.339 46.016C196.248 45.376 194.435 44.4587 192.899 43.264C191.363 42.0694 190.168 40.576 189.315 38.784C188.461 36.992 188.035 34.9227 188.035 32.576C188.035 31.2533 188.248 29.9947 188.675 28.8C189.101 27.6053 189.677 26.5173 190.403 25.536C191.128 24.512 191.96 23.5947 192.899 22.784C193.837 21.9307 194.797 21.184 195.779 20.544C195.096 19.6907 194.52 18.944 194.051 18.304C193.581 17.6213 193.219 16.9813 192.963 16.384C192.707 15.744 192.515 15.1253 192.387 14.528C192.301 13.888 192.259 13.184 192.259 12.416C192.259 11.2213 192.515 10.0907 193.027 9.02401C193.581 7.91468 194.328 6.95468 195.267 6.14402C196.248 5.33335 197.421 4.69335 198.787 4.22401C200.152 3.71202 201.667 3.45602 203.331 3.45602C205.123 3.45602 206.723 3.79735 208.131 4.48001C209.581 5.12001 210.797 5.97335 211.779 7.04002C212.803 8.06402 213.571 9.21601 214.083 10.496C214.637 11.7333 214.915 12.9707 214.915 14.208L207.171 14.272ZM196.483 32.448C196.483 33.5573 196.717 34.56 197.187 35.456C197.656 36.3093 198.275 37.0347 199.043 37.632C199.853 38.2294 200.792 38.6773 201.859 38.976C202.968 39.2747 204.141 39.424 205.379 39.424C207.597 39.424 209.709 38.784 211.715 37.504L200.579 25.728C199.469 26.4533 198.509 27.3707 197.699 28.48C196.888 29.5893 196.483 30.912 196.483 32.448Z" fill="black"/>
</svg>
