<?xml version="1.0" encoding="UTF-8" standalone="no"?>
<svg
   xmlns:svg="http://www.w3.org/2000/svg"
   xmlns="http://www.w3.org/2000/svg"
   version="1.1"
   width="409.43604"
   height="161.48114"
   id="svg3230">
  <defs
     id="defs3232" />
  <g
     transform="translate(-145.282,-451.62172)"
     id="layer1">
    <path
       d="m 274.69757,524.85235 -25.94661,83.14681 c -0.0158,0.0607 -0.0871,0.10023 -0.15299,0.10023 H 198.4113 c -0.0686,0 -0.14243,-0.0527 -0.15562,-0.11605 L 150.282,457.19648 c 0,-0.16881 0.13452,-0.30069 0.30069,-0.30069 l 59.25757,0.003 c 0.13452,0 0.21893,0.0949 0.2453,0.22156 l 20.94299,81.43762 c 0.11342,0.0844 0.14243,0.0554 0.14771,0.008 l 20.61064,-81.39014 c 0.0158,-0.0633 0.0686,-0.11078 0.13979,-0.11078 h 54.98721 l 21.09597,83.12835 c 0.0264,0.11606 0.0501,0.15562 0.0897,0.15562 l 0.10023,-0.14771 23.50942,-83.02548 c 0.008,-0.0686 0.0633,-0.11078 0.13452,-0.11078 l 89.58533,0.005 c 0.0659,0 0.11078,0.0422 0.12661,0.10286 l 26.66142,84.85074 c 0.11078,0.0765 0.13716,0.0396 0.14244,0.008 l 28.31523,-85.30442 c 0.0185,-0.0633 0.0607,-0.10551 0.12661,-0.10551 l 52.79267,0.005 c 0.087,0 0.12397,0.0633 0.12397,0.14771 l -58.22625,151.21943 c -0.0158,0.0686 -0.0844,0.11605 -0.15298,0.10814 h -9.52457 l -29.7976,-0.0317 -3.5793,-4.1886 c 10.28158,-11.27334 13.08541,-18.99376 14.47809,-37.31755 0,-0.0765 -0.0396,-0.14507 -0.12133,-0.14507 h -30.26973 c -0.0818,0 -0.15299,0.0659 -0.15299,0.14507 -0.58028,6.6126 -0.6304,8.98649 -4.5605,13.51007 l -16.66471,-19.23906 c 3.57139,-2.3818 9.92022,-7.34059 9.92022,-7.34059 8.728,-6.54139 13.88198,-13.4837 13.88198,-24.19522 0,-20.82956 -14.47809,-35.50811 -39.47251,-35.50811 -2.00989,0 -3.95385,0.0791 -5.82131,0.23739 L 353.19156,608.07038 H 319.4243 l -19.9143,0.0317 c -0.0686,0 -0.14244,-0.0448 -0.15562,-0.11606 l -24.5091,-83.12835 c -0.11342,-0.0791 -0.13979,-0.0422 -0.14771,-0.005 m 131.76936,78.14582 c -3.13354,2.70623 -6.7524,5.05111 -13.76856,5.05111 -8.72537,0 -16.46161,-6.15101 -16.46161,-14.88693 0,-6.69173 1.79097,-10.87242 8.22421,-15.396 0.13188,-0.0211 0.17145,0 0.19782,0.0317 l 21.82924,24.97859 c 0.0422,0.14508 0.0158,0.18728 -0.0211,0.22157 m -12.2651,-61.86885 c -0.13979,0.0317 -0.17936,0.008 -0.20574,-0.0237 -2.42136,-2.41873 -7.4461,-7.30894 -7.4461,-11.4105 0,-4.96143 2.18134,-8.53281 8.92583,-8.53281 5.95055,0 8.92846,3.57138 8.92846,8.33235 0,3.17574 -2.18398,5.95055 -5.55754,8.33236 0,0 -2.84867,2.09693 -4.64491,3.30234"
       id="path236" />
  </g>
</svg>
